<svg xmlns="http://www.w3.org/2000/svg" version="1.1" height="483.47140066964283px" width="381px" viewBox="-10 -10 401 503.47140066964283" content="&lt;mxGraphModel dx=&quot;696&quot; dy=&quot;784&quot; grid=&quot;1&quot; gridSize=&quot;10&quot; guides=&quot;1&quot; tooltips=&quot;1&quot; connect=&quot;1&quot; arrows=&quot;1&quot; fold=&quot;1&quot; page=&quot;0&quot; pageScale=&quot;1&quot; pageWidth=&quot;827&quot; pageHeight=&quot;1169&quot; math=&quot;0&quot; shadow=&quot;0&quot;&gt;&lt;root&gt;&lt;mxCell id=&quot;0&quot;/&gt;&lt;mxCell id=&quot;1&quot; parent=&quot;0&quot;/&gt;&lt;mxCell id=&quot;2&quot; value=&quot;SpringSecurity&quot; style=&quot;swimlane;childLayout=stackLayout;resizeParent=1;resizeParentMax=0;startSize=20;horizontal=0;horizontalStack=1;&quot; parent=&quot;1&quot; vertex=&quot;1&quot;&gt;&lt;mxGeometry x=&quot;140&quot; y=&quot;-90&quot; width=&quot;380&quot; height=&quot;480&quot; as=&quot;geometry&quot;/&gt;&lt;/mxCell&gt;&lt;mxCell id=&quot;3&quot; value=&quot;client&quot; style=&quot;swimlane;startSize=20;&quot; parent=&quot;2&quot; vertex=&quot;1&quot;&gt;&lt;mxGeometry x=&quot;20&quot; width=&quot;120&quot; height=&quot;480&quot; as=&quot;geometry&quot;/&gt;&lt;/mxCell&gt;&lt;mxCell id=&quot;4&quot; value=&quot;UsernamePassword&amp;#10;AuthenticationFilter&quot; style=&quot;swimlane;startSize=20;&quot; parent=&quot;2&quot; vertex=&quot;1&quot;&gt;&lt;mxGeometry x=&quot;140&quot; width=&quot;120&quot; height=&quot;480&quot; as=&quot;geometry&quot;/&gt;&lt;/mxCell&gt;&lt;mxCell id=&quot;5&quot; value=&quot;Lane 3&quot; style=&quot;swimlane;startSize=20;&quot; parent=&quot;2&quot; vertex=&quot;1&quot;&gt;&lt;mxGeometry x=&quot;260&quot; width=&quot;120&quot; height=&quot;480&quot; as=&quot;geometry&quot;/&gt;&lt;/mxCell&gt;&lt;/root&gt;&lt;/mxGraphModel&gt;"><style type="text/css"></style><path d="M 18.51 4.52 L 1.33 4.41 L -1.43 481.07 L 18.72 481.6" fill="#ffffff" stroke="none" pointer-events="none"/><path d="M 20.5 2.97 M 20.5 2.97 C 15.23 1.97 10.72 1.87 0.5 2.97 M 20.5 2.97 C 16.63 2.72 11.76 3.93 0.5 2.97 M 0.5 2.97 C 1.95 106.72 2.19 211.8 0.5 482.97 M 0.5 2.97 C -0.1 171.76 -0.66 340.26 0.5 482.97 M 0.5 482.97 C 7.38 484.07 13.37 484.96 20.5 482.97 M 0.5 482.97 C 7.69 483.78 13.98 482.87 20.5 482.97" fill="none" stroke="#000000" stroke-linejoin="round" stroke-linecap="round" stroke-miterlimit="10" pointer-events="none"/><path d="M 20.5 2.97 M 20.5 2.97 C 93.54 0.81 163.56 0.9 380.5 2.97 M 20.5 2.97 C 103.77 3.48 186.87 3.91 380.5 2.97 M 380.5 2.97 C 379.24 121.82 379.12 239.81 380.5 482.97 M 380.5 2.97 C 378.99 194.02 378.42 385.09 380.5 482.97 M 380.5 482.97 C 279.19 482.94 177.57 481.31 20.5 482.97 M 380.5 482.97 C 267.34 481.49 155 481.42 20.5 482.97" fill="none" stroke="#000000" stroke-linejoin="round" stroke-linecap="round" stroke-miterlimit="10" pointer-events="none"/><path d="M 20.5 2.97 M 20.5 2.97 C 22.74 98.31 21.29 194.55 20.5 482.97 M 20.5 2.97 C 20.3 114.22 20.14 225.63 20.5 482.97" fill="none" stroke="#000000" stroke-linejoin="round" stroke-linecap="round" stroke-miterlimit="10" pointer-events="none"/><g fill="#000000" font-family="Helvetica" font-weight="bold" pointer-events="none" text-anchor="middle" font-size="12px" transform="rotate(-90,10.5,242.97)"><text x="10.5" y="247.97">SpringSecurity</text></g><path d="M 18.51 24.86 L 19.74 3.27 L 141.54 2.75 L 141.88 23.04" fill="#ffffff" stroke="none" pointer-events="none"/><path d="M 20.5 22.97 M 20.5 22.97 C 21.42 17.41 21.21 10.34 20.5 2.97 M 20.5 22.97 C 20.78 14.59 20.1 8.91 20.5 2.97 M 20.5 2.97 C 48.73 1.87 77.06 2.21 140.5 2.97 M 20.5 2.97 C 60.75 2.04 103.11 3.5 140.5 2.97 M 140.5 2.97 C 141.33 9.34 138.87 13.34 140.5 22.97 M 140.5 2.97 C 140.59 8.9 140.72 13.75 140.5 22.97" fill="none" stroke="#000000" stroke-linejoin="round" stroke-linecap="round" stroke-miterlimit="10" pointer-events="none"/><path d="M 20.5 22.97 M 20.5 22.97 C 22.67 115.63 22.43 207.95 20.5 482.97 M 20.5 22.97 C 20.21 162.82 20.77 302.37 20.5 482.97 M 20.5 482.97 C 53.66 484.3 85.95 482.95 140.5 482.97 M 20.5 482.97 C 64.98 484.01 109.31 484.06 140.5 482.97 M 140.5 482.97 C 139.64 370.1 138.77 259.2 140.5 22.97 M 140.5 482.97 C 142.16 320.09 142.13 156.42 140.5 22.97" fill="none" stroke="#000000" stroke-linejoin="round" stroke-linecap="round" stroke-miterlimit="10" pointer-events="none"/><path d="M 20.5 22.97 M 20.5 22.97 C 44.84 24.47 68.37 24.81 140.5 22.97 M 20.5 22.97 C 56 22.92 93.62 22.82 140.5 22.97" fill="none" stroke="#000000" stroke-linejoin="round" stroke-linecap="round" stroke-miterlimit="10" pointer-events="none"/><g fill="#000000" font-family="Helvetica" font-weight="bold" pointer-events="none" text-anchor="middle" font-size="12px"><text x="80.5" y="17.97">client</text></g><path d="M 138.51 21.2 L 142.14 2.12 L 260.5 4.43 L 261.04 24.48" fill="#ffffff" stroke="none" pointer-events="none"/><path d="M 140.5 22.97 M 140.5 22.97 C 142.13 14.68 140.35 10.5 140.5 2.97 M 140.5 22.97 C 139.58 17.3 140.23 11.61 140.5 2.97 M 140.5 2.97 C 170.37 0.65 200.36 -0.04 260.5 2.97 M 140.5 2.97 C 180.06 3.09 219.91 4.28 260.5 2.97 M 260.5 2.97 C 261.65 8.47 260.97 17.34 260.5 22.97 M 260.5 2.97 C 260.61 7.14 259.64 12.68 260.5 22.97" fill="none" stroke="#000000" stroke-linejoin="round" stroke-linecap="round" stroke-miterlimit="10" pointer-events="none"/><path d="M 140.5 22.97 M 140.5 22.97 C 138.21 115.14 139.28 207.57 140.5 482.97 M 140.5 22.97 C 141.06 196.03 140.48 368.34 140.5 482.97 M 140.5 482.97 C 177.5 480.74 216.87 482.06 260.5 482.97 M 140.5 482.97 C 183.24 483.13 223.51 482.96 260.5 482.97 M 260.5 482.97 C 259.58 388.34 259.63 293.97 260.5 22.97 M 260.5 482.97 C 259.02 301.34 258.53 119.27 260.5 22.97" fill="none" stroke="#000000" stroke-linejoin="round" stroke-linecap="round" stroke-miterlimit="10" pointer-events="none"/><path d="M 140.5 22.97 M 140.5 22.97 C 163.7 21.99 190.05 22.53 260.5 22.97 M 140.5 22.97 C 185.84 24.81 229.67 23.92 260.5 22.97" fill="none" stroke="#000000" stroke-linejoin="round" stroke-linecap="round" stroke-miterlimit="10" pointer-events="none"/><g fill="#000000" font-family="Helvetica" font-weight="bold" pointer-events="none" text-anchor="middle" font-size="12px"><text x="200.5" y="10.97">UsernamePassword</text><text x="200.5" y="24.97">AuthenticationFilter</text></g><path d="M 258.51 21.54 L 260.55 0.98 L 379.47 2.11 L 380.21 21.92" fill="#ffffff" stroke="none" pointer-events="none"/><path d="M 260.5 22.97 M 260.5 22.97 C 262.44 15.95 259.09 10.66 260.5 2.97 M 260.5 22.97 C 260.77 18.02 260.77 14.3 260.5 2.97 M 260.5 2.97 C 292.01 1.83 323.65 4.12 380.5 2.97 M 260.5 2.97 C 299.37 4.14 336.71 3.05 380.5 2.97 M 380.5 2.97 C 381.97 7.6 379.06 13.35 380.5 22.97 M 380.5 2.97 C 380.63 9.37 380.57 17.6 380.5 22.97" fill="none" stroke="#000000" stroke-linejoin="round" stroke-linecap="round" stroke-miterlimit="10" pointer-events="none"/><path d="M 260.5 22.97 M 260.5 22.97 C 258.04 114.66 258.57 207.18 260.5 482.97 M 260.5 22.97 C 260.97 137.25 261.13 250.31 260.5 482.97 M 260.5 482.97 C 301.35 483.59 343.79 483.57 380.5 482.97 M 260.5 482.97 C 299.5 482.25 337.7 481.87 380.5 482.97 M 380.5 482.97 C 379.52 314.57 380.5 144.73 380.5 22.97 M 380.5 482.97 C 380.18 374.59 380.17 265.18 380.5 22.97" fill="none" stroke="#000000" stroke-linejoin="round" stroke-linecap="round" stroke-miterlimit="10" pointer-events="none"/><path d="M 260.5 22.97 M 260.5 22.97 C 282.56 21.91 307.73 22.65 380.5 22.97 M 260.5 22.97 C 289.68 24.3 319.72 22.63 380.5 22.97" fill="none" stroke="#000000" stroke-linejoin="round" stroke-linecap="round" stroke-miterlimit="10" pointer-events="none"/><g fill="#000000" font-family="Helvetica" font-weight="bold" pointer-events="none" text-anchor="middle" font-size="12px"><text x="320.5" y="17.97">Lane 3</text></g></svg>